Coordinates
version=1
nRows=10
nColumns=40
inDegrees=yes

Units are S.I. units (second, meters, Newtons, ...)
Angles are in degrees.

endheader
time	pelvis_tilt	pelvis_list	pelvis_rotation	pelvis_tx	pelvis_ty	pelvis_tz	hip_flexion_r	hip_adduction_r	hip_rotation_r	knee_angle_r	knee_angle_r_beta	ankle_angle_r	subtalar_angle_r	mtp_angle_r	hip_flexion_l	hip_adduction_l	hip_rotation_l	knee_angle_l	knee_angle_l_beta	ankle_angle_l	subtalar_angle_l	mtp_angle_l	lumbar_extension	lumbar_bending	lumbar_rotation	arm_flex_r	arm_add_r	arm_rot_r	elbow_flex_r	pro_sup_r	wrist_flex_r	wrist_dev_r	arm_flex_l	arm_add_l	arm_rot_l	elbow_flex_l	pro_sup_l	wrist_flex_l	wrist_dev_l
     36.09442857	     -7.09113631	     -5.64340343	     -3.32539744	      1.03506896	      0.93311898	      0.43316742	     40.36193242	     -3.18836334	     -5.98445499	     60.57713656	     60.57713656	      2.46204214	    -11.40722033	     -1.50426666	     12.72190877	     -6.09532704	     -7.24222249	     18.53672555	     18.53672555	     15.16348975	     -5.87023088	     -0.49728629	    -12.77842607	      5.66627427	      3.90175870	     -2.05635333	    -16.55992650	     -3.04634017	     55.60238783	     46.13080820	      0.00000000	      0.00000000	     25.33165953	    -20.34390503	      9.90642896	     67.90182722	     46.36922735	      0.00000000	      0.00000000
     36.10635714	     -7.08331602	     -5.69452702	     -3.41992834	      1.03462866	      0.93275502	      0.43309454	     40.72775224	     -2.84038843	     -5.95877771	     57.51450881	     57.51450881	      2.31594813	    -11.02200014	     -1.96067970	     12.08617004	     -6.07521287	     -7.10628476	     18.44737729	     18.44737729	     15.60066435	     -6.10671184	     -0.30652912	    -12.72739130	      5.73151714	      3.11300397	     -0.72458500	    -15.75828964	     -4.03263580	     47.70097008	     46.41770947	      0.00000000	      0.00000000	     26.12848735	    -21.68938979	     10.14030334	     70.93197252	     46.46389063	      0.00000000	      0.00000000
     36.11828571	     -7.05586256	     -5.73041034	     -3.56327552	      1.03432903	      0.93225496	      0.43310264	     40.88698400	     -2.47257398	     -5.93600609	     54.12928649	     54.12928649	      2.22218220	    -10.43274446	     -2.28287378	     11.40698606	     -6.06096829	     -7.10111341	     18.36327104	     18.36327104	     16.09827862	     -6.22187351	     -0.23349349	    -12.80153010	      5.82470778	      3.11450401	     -0.81671975	    -15.71638494	     -4.26572759	     42.89498744	     46.55611881	      0.00000000	      0.00000000	     27.21533571	    -21.94417573	      9.41159857	     73.72690200	     46.62689772	      0.00000000	      0.00000000
     36.13021429	     -6.99837767	     -5.76949286	     -3.67388944	      1.03422944	      0.93172000	      0.43311362	     40.79096391	     -2.14335597	     -6.04352740	     50.42725382	     50.42725382	      2.34641916	     -9.45494638	     -2.08890932	     10.67376358	     -6.04712798	     -7.07946951	     18.25645829	     18.25645829	     16.50988421	     -6.29595145	     -0.30349945	    -12.93938469	      5.99918508	      3.56790262	     -2.06201659	    -15.99265231	     -4.22300322	     40.75291273	     46.61502597	      0.00000000	      0.00000000	     28.81819591	    -21.74205308	      9.03708393	     75.73240717	     46.71061646	      0.00000000	      0.00000000
     36.14214286	     -7.00285241	     -5.68784782	     -3.76296506	      1.03426411	      0.93099768	      0.43326042	     40.54187170	     -1.92542787	     -6.22237612	     46.39627326	     46.39627326	      2.13165472	     -8.47710017	     -2.68856358	      9.96870718	     -5.92392653	     -7.19625024	     18.07799376	     18.07799376	     16.97270916	     -6.21298248	     -0.26583961	    -12.89696005	      5.90813342	      2.99755825	     -0.90596360	    -15.53430364	     -4.75350642	     34.01816454	     46.85311206	      0.00000000	      0.00000000	     29.38121967	    -22.58487789	      8.70427326	     79.02550225	     46.86477082	      0.00000000	      0.00000000
     36.15407143	     -6.97566061	     -5.57629165	     -3.85268366	      1.03453870	      0.93020401	      0.43339810	     40.07651770	     -1.76782768	     -6.54154751	     42.20294966	     42.20294966	      2.17032311	     -6.92112192	     -2.39105885	      9.15164475	     -5.75323401	     -7.31359440	     17.78510003	     17.78510003	     17.37960854	     -6.09533907	     -0.36679766	    -12.93448399	      5.87747913	      3.40568027	     -2.02019298	    -15.65978035	     -4.82052176	     32.14004261	     46.90597880	      0.00000000	      0.00000000	     30.67977650	    -22.25870749	      8.20440528	     81.17516829	     46.96571224	      0.00000000	      0.00000000
     36.16600000	     -6.96611865	     -5.44287723	     -3.88333538	      1.03502557	      0.92930425	      0.43362832	     39.39250840	     -1.63212927	     -7.01140870	     37.78420357	     37.78420357	      2.01000665	     -5.22856534	     -2.15063253	      8.32494414	     -5.56993900	     -7.46444628	     17.44572095	     17.44572095	     17.78515901	     -5.82541309	     -0.54157332	    -12.88710135	      5.79575116	      2.92205865	     -1.55265305	    -15.35742480	     -5.41459031	     27.79780952	     47.06235774	      0.00000000	      0.00000000	     31.07807253	    -22.82320638	      7.44139654	     84.16389174	     47.15892415	      0.00000000	      0.00000000
     36.17792857	     -6.91113376	     -5.30678972	     -3.85817739	      1.03581495	      0.92834601	      0.43389569	     38.45055884	     -1.49694634	     -7.62684814	     33.28953840	     33.28953840	      1.88533959	     -3.34495040	     -1.32462875	      7.39847967	     -5.37443113	     -7.55005738	     17.03608755	     17.03608755	     18.16804831	     -5.55785311	     -0.70808961	    -12.85921159	      5.74382360	      3.15705399	     -2.72596601	    -15.40529890	     -5.42799189	     26.83109091	     47.08536380	      0.00000000	      0.00000000	     32.20401621	    -22.54716042	      7.26668972	     85.85380018	     47.21943409	      0.00000000	      0.00000000
     36.18985714	     -6.85198447	     -5.08729983	     -3.77150301	      1.03688936	      0.92721854	      0.43421710	     37.38472560	     -1.45389716	     -8.38641866	     28.92644004	     28.92644004	      1.69889022	     -1.35123995	     -0.27167142	      6.41265577	     -5.09146394	     -7.67983120	     16.53244782	     16.53244782	     18.53140084	     -5.13822476	     -0.92861008	    -12.79904521	      5.59510225	      3.33265935	     -3.83617750	    -15.37697190	     -5.42973647	     25.87474348	     47.10951892	      0.00000000	      0.00000000	     33.16057759	    -22.35238740	      7.20794312	     87.68331463	     47.27305676	      0.00000000	      0.00000000
     36.20178571	     -6.77006433	     -4.75523978	     -3.67618924	      1.03828147	      0.92591160	      0.43469494	     36.38485871	     -1.58653612	     -9.40164983	     25.20924758	     25.20924758	      2.24357342	      1.17335108	      3.00961083	      5.30887190	     -4.71270743	     -7.98872006	     15.87759578	     15.87759578	     18.75221659	     -4.46461057	     -1.62799717	    -12.72844925	      5.25264175	      2.94595439	     -4.07416403	    -15.08639032	     -5.72736549	     23.90362155	     47.16653129	      0.00000000	      0.00000000	     33.35318363	    -22.83153328	      6.80368221	     90.88916982	     47.44715803	      0.00000000	      0.00000000
